<?xml version="1.0" encoding="utf-8"?>
<svg xmlns="http://www.w3.org/2000/svg" viewBox="0 0 720 480" preserveAspectRatio="xMidYMid meet">
  <defs>
    <radialGradient id="ubmCone" cx="50%" cy="0%" r="80%">
      <stop offset="0%"  stop-color="#3D3528" stop-opacity="0.95"/>
      <stop offset="40%" stop-color="#2A2419" stop-opacity="0.85"/>
      <stop offset="100%" stop-color="#0A0905" stop-opacity="0.80"/>
    </radialGradient>
    <linearGradient id="tissueLayer" x1="0" y1="0" x2="0" y2="1">
      <stop offset="0%" stop-color="#FFEFC7" stop-opacity="0.90"/>
      <stop offset="100%" stop-color="#7A6034" stop-opacity="0.75"/>
    </linearGradient>
    <filter id="speckleU" x="0" y="0" width="100%" height="100%">
      <feTurbulence type="fractalNoise" baseFrequency="1.4" numOctaves="3" seed="11"/>
      <feColorMatrix values="0 0 0 0 0.95   0 0 0 0 0.85   0 0 0 0 0.65   0 0 0 0.55 0"/>
      <feComposite in2="SourceGraphic" operator="in"/>
    </filter>
    <filter id="grain" x="0" y="0" width="100%" height="100%">
      <feTurbulence type="fractalNoise" baseFrequency="2.4" numOctaves="2" seed="7"/>
      <feColorMatrix values="0 0 0 0 1   0 0 0 0 0.92   0 0 0 0 0.7   0 0 0 0.30 0"/>
    </filter>
  </defs>

  <!-- Pure-black background -->
  <rect width="720" height="480" fill="#000"/>

  <!-- Wedge scan area (UBM cone shape) -->
  <path d="M 360,30 L 90,470 L 630,470 Z" fill="url(#ubmCone)"/>

  <!-- Scleral / corneal layer (top arc) -->
  <path d="M 200,135 Q 360,60 520,135 L 540,180 Q 360,108 180,180 Z" fill="url(#tissueLayer)" opacity="0.88"/>
  <path d="M 200,135 Q 360,60 520,135" fill="none" stroke="#FFE9B6" stroke-width="2" opacity="0.95"/>

  <!-- Iris (extends laterally inside cone) -->
  <path d="M 180,210 Q 270,205 320,260 L 320,275 Q 270,225 180,225 Z" fill="#C9A458" opacity="0.92"/>
  <path d="M 540,210 Q 450,205 400,260 L 400,275 Q 450,225 540,225 Z" fill="#C9A458" opacity="0.92"/>

  <!-- CILIARY BODY (visible only on UBM — characteristic) -->
  <ellipse cx="180" cy="240" rx="34" ry="18" fill="#FFD68A" opacity="0.85"/>
  <ellipse cx="540" cy="240" rx="34" ry="18" fill="#FFD68A" opacity="0.85"/>

  <!-- LENS (crystalline) — biconvex -->
  <ellipse cx="360" cy="320" rx="190" ry="46" fill="#E5C982" opacity="0.85"/>
  <ellipse cx="360" cy="320" rx="190" ry="46" fill="none" stroke="#FFEFC7" stroke-width="1.5" opacity="0.9"/>

  <!-- Strong speckle/noise inside the cone (typical ultrasound) -->
  <path d="M 360,30 L 90,470 L 630,470 Z" fill="#FFEFC7" filter="url(#speckleU)" opacity="0.48"/>
  <path d="M 360,30 L 90,470 L 630,470 Z" fill="#fff" filter="url(#grain)" opacity="0.10"/>

  <!-- === MEASUREMENTS overlay === -->
  <!-- STS: sulcus-to-sulcus (UBM's unique advantage) -->
  <line x1="170" y1="265" x2="550" y2="265" stroke="#5BE0A0" stroke-width="1.4" stroke-dasharray="4 3"/>
  <circle cx="170" cy="265" r="3.5" fill="#5BE0A0"/>
  <circle cx="550" cy="265" r="3.5" fill="#5BE0A0"/>
  <text x="360" y="258" text-anchor="middle" font-family="Inter, sans-serif" font-size="11" font-weight="700" fill="#5BE0A0">STS · 11.78 mm</text>

  <!-- Ciliary-body distance indicator -->
  <line x1="180" y1="240" x2="540" y2="240" stroke="#FF8AB5" stroke-width="1" stroke-dasharray="2 4" opacity="0.7"/>
  <text x="356" y="232" text-anchor="middle" font-family="Inter, sans-serif" font-size="10" fill="#FF8AB5">CB-CB · 11.95 mm</text>

  <!-- ACD vertical -->
  <line x1="360" y1="100" x2="360" y2="278" stroke="#FFC857" stroke-width="1.4" stroke-dasharray="4 3"/>
  <circle cx="360" cy="100" r="3" fill="#FFC857"/>
  <circle cx="360" cy="278" r="3" fill="#FFC857"/>
  <text x="372" y="200" font-family="Inter, sans-serif" font-size="11" font-weight="700" fill="#FFC857">ACD · 3.07 mm</text>

  <!-- === HUD overlays === -->
  <g font-family="Inter, monospace" fill="#FFE9B6">
    <!-- Top-left: device -->
    <rect x="14" y="14" width="190" height="60" fill="rgba(0,0,0,0.65)" rx="3"/>
    <text x="22" y="32" font-size="11" font-weight="700" fill="#fff">QUANTEL UBM · 50 MHz</text>
    <text x="22" y="46" font-size="10" opacity="0.85">SAGITTAL · NASAL angle</text>
    <text x="22" y="60" font-size="10" opacity="0.85">2026-04-25 · OD · L. CASTRO</text>

    <!-- Top-right: gain/depth -->
    <rect x="516" y="14" width="190" height="60" fill="rgba(0,0,0,0.65)" rx="3"/>
    <text x="700" y="32" text-anchor="end" font-size="11" font-weight="700" fill="#fff">PARAMS</text>
    <text x="700" y="46" text-anchor="end" font-size="10" opacity="0.85">Gain 88 dB · Depth 9.0 mm</text>
    <text x="700" y="60" text-anchor="end" font-size="10" opacity="0.85">TGC ramped · Focus 6.5 mm</text>

    <!-- Bottom-left: 1mm scale -->
    <line x1="22" y1="450" x2="60" y2="450" stroke="#fff" stroke-width="1.5"/>
    <line x1="22" y1="445" x2="22" y2="455" stroke="#fff" stroke-width="1.5"/>
    <line x1="60" y1="445" x2="60" y2="455" stroke="#fff" stroke-width="1.5"/>
    <text x="41" y="442" text-anchor="middle" font-size="10" fill="#fff">1 mm</text>

    <!-- Bottom-right: REC -->
    <circle cx="676" cy="452" r="4" fill="#FF6B6B"/>
    <text x="700" y="456" text-anchor="end" font-size="10" font-weight="700" fill="#FF6B6B">● LIVE</text>
  </g>
</svg>
