<svg width="16" height="7" viewBox="0 0 16 7" fill="none" xmlns="http://www.w3.org/2000/svg">
<path d="M0.447532 6.63477L3.37509 0.843572V0.792436L8.87997e-05 0.792436L8.87997e-05 0.0893109L4.19327 0.0893109V0.830788L1.2785 6.63477H0.447532ZM7.37891 6.72425C6.89737 6.72425 6.48722 6.59322 6.14844 6.33114C5.80966 6.06694 5.55078 5.68448 5.3718 5.18377C5.19283 4.68093 5.10334 4.07369 5.10334 3.36204C5.10334 2.65465 5.19283 2.0506 5.3718 1.54989C5.55291 1.04705 5.81286 0.66353 6.15163 0.399325C6.49254 0.13299 6.90163 -0.000177801 7.37891 -0.000177801C7.85618 -0.000177801 8.2642 0.13299 8.60298 0.399325C8.94389 0.66353 9.20384 1.04705 9.38281 1.54989C9.56392 2.0506 9.65447 2.65465 9.65447 3.36204C9.65447 4.07369 9.56499 4.68093 9.38601 5.18377C9.20703 5.68448 8.94815 6.06694 8.60937 6.33114C8.2706 6.59322 7.86044 6.72425 7.37891 6.72425ZM7.37891 6.02113C7.85618 6.02113 8.22692 5.79102 8.49112 5.33079C8.75533 4.87056 8.88743 4.21431 8.88743 3.36204C8.88743 2.79528 8.8267 2.31268 8.70526 1.91424C8.58594 1.5158 8.41335 1.21218 8.1875 1.00337C7.96378 0.794567 7.69425 0.690163 7.37891 0.690163C6.90589 0.690163 6.53622 0.923473 6.26989 1.39009C6.00355 1.85458 5.87038 2.5119 5.87038 3.36204C5.87038 3.9288 5.93004 4.41033 6.04936 4.80664C6.16868 5.20295 6.3402 5.50444 6.56392 5.71112C6.78977 5.91779 7.06143 6.02113 7.37891 6.02113ZM13.0039 6.72425C12.5224 6.72425 12.1122 6.59322 11.7734 6.33114C11.4347 6.06694 11.1758 5.68448 10.9968 5.18377C10.8178 4.68093 10.7283 4.07369 10.7283 3.36204C10.7283 2.65465 10.8178 2.0506 10.9968 1.54989C11.1779 1.04705 11.4379 0.66353 11.7766 0.399325C12.1175 0.13299 12.5266 -0.000177801 13.0039 -0.000177801C13.4812 -0.000177801 13.8892 0.13299 14.228 0.399325C14.5689 0.66353 14.8288 1.04705 15.0078 1.54989C15.1889 2.0506 15.2795 2.65465 15.2795 3.36204C15.2795 4.07369 15.19 4.68093 15.011 5.18377C14.832 5.68448 14.5732 6.06694 14.2344 6.33114C13.8956 6.59322 13.4854 6.72425 13.0039 6.72425ZM13.0039 6.02113C13.4812 6.02113 13.8519 5.79102 14.1161 5.33079C14.3803 4.87056 14.5124 4.21431 14.5124 3.36204C14.5124 2.79528 14.4517 2.31268 14.3303 1.91424C14.2109 1.5158 14.0384 1.21218 13.8125 1.00337C13.5888 0.794567 13.3192 0.690163 13.0039 0.690163C12.5309 0.690163 12.1612 0.923473 11.8949 1.39009C11.6286 1.85458 11.4954 2.5119 11.4954 3.36204C11.4954 3.9288 11.555 4.41033 11.6744 4.80664C11.7937 5.20295 11.9652 5.50444 12.1889 5.71112C12.4148 5.91779 12.6864 6.02113 13.0039 6.02113Z" fill="black"/>
</svg>
